<?xml version="1.0" encoding="UTF-8"?>
<svg viewBox="0 0 781.34 740.44" xmlns="http://www.w3.org/2000/svg">
    <path
        d="m146.77,218.08c-3.76-59.61-7.46-118.2-11.26-178.37,42.48,41.22,83.96,81.47,126.1,122.36,22.72-54.15,45.2-107.74,68-162.07,10.81,16.3,21.12,31.82,31.39,47.36,24.24,36.67,48.51,73.33,72.62,110.09,2.01,3.07,4.4,3.42,7.55,3.42,110.99-.04,221.98-.04,332.96-.04,2.13,0,4.25,0,7.22,0-4.29,10.25-8.21,19.74-12.21,29.21-35.06,82.94-70.55,165.7-105.05,248.88-19.72,47.55-41.93,93.9-64.24,140.23-14.15,29.39-28.26,58.81-42.4,88.21-.56,1.17-1.22,2.29-2,3.75-12.47-4.18-24.75-8.3-37.03-12.43-21.14-7.11-42.25-14.27-63.42-21.29-1.77-.59-3.92-.63-5.77-.29-40.11,7.38-80.2,14.85-120.3,22.3-18.49,3.44-37.1,6.36-55.45,10.42-21.27,4.71-42.38,10.21-63.46,15.74-68.58,17.96-137.12,36.1-205.67,54.15-1.1.29-2.24.38-4.34.73,2.58-6.9,4.91-13.16,7.27-19.42,15.47-41.13,31.14-82.18,46.35-123.41,7.43-20.13,14.09-40.55,20.91-60.9.67-2,.64-4.66-.08-6.64-17.76-48.8-35.67-97.55-53.54-146.31-1.82-4.97-3.6-9.96-5.61-15.53,28.93-4.82,57.43-9.57,86.65-14.44-17.33-61.1-34.55-121.81-52.13-183.77,32.82,16.27,64.46,31.96,96.95,48.07Zm46.68,345.48c.9-1.82,1.22-2.57,1.62-3.28,37.26-65.38,74.51-130.76,111.78-196.14,27.04-47.44,54.06-94.89,81.22-142.26,1.84-3.22,1.71-5.43-.33-8.43-7.97-11.69-15.67-23.57-23.49-35.37-6.77-10.21-13.56-20.4-20.88-31.43-19.19,45.72-38.02,90.6-57.1,136.06-23.37-22.65-46.23-44.81-69.08-66.97-.34.19-.68.37-1.02.56,2.44,38.79,4.89,77.58,7.39,117.39-21.54-10.68-42.33-20.99-64.14-31.8,10.31,36.42,20.33,71.83,30.47,107.68-27.24,4.53-53.74,8.93-80.53,13.38.48,1.45.71,2.23.99,2.99,9.29,25.31,17.99,50.85,28.08,75.83,6.85,16.95,10.54,33.3,3.97,51.23-8.19,22.33-15.51,44.99-23.24,67.49-2.07,6.04-4.28,12.04-6.62,18.61,1.48-.24,2.12-.3,2.72-.46,19.32-5.04,38.64-10.1,57.97-15.15,25.6-6.69,51.04-14.12,76.85-19.83,26.8-5.93,53.97-10.14,80.97-15.19,37.3-6.97,74.62-13.79,111.84-21.17,10.34-2.05,19.71-1.35,29.55,2.51,14.08,5.53,28.67,9.74,42.96,14.74,3.5,1.22,4.79.26,6.31-2.97,9.36-19.88,19.02-39.61,28.54-59.41,5.09-10.58,10.12-21.19,15.62-32.72-124.46,24.77-247.94,49.34-372.43,74.11Zm483.25-333.39h-6.16c-67.3,0-134.61.04-201.91-.1-4.26,0-6.45,1.41-8.51,5.04-41.09,72.37-82.31,144.66-123.5,216.98-2.4,4.21-4.73,8.47-7.48,13.41,2.65-.34,4.31-.46,5.92-.78,34.27-6.83,68.53-13.7,102.79-20.54,52.86-10.56,105.73-21.08,158.57-31.78,1.84-.37,4.16-2.12,4.88-3.81,22.17-52.05,44.17-104.17,66.18-156.28,3.02-7.14,5.96-14.32,9.21-22.13Z"
        fill="#fff" />
</svg>